<svg width="2485" height="2479" xmlns="http://www.w3.org/2000/svg" xmlns:xlink="http://www.w3.org/1999/xlink" xml:space="preserve" overflow="hidden"><defs><linearGradient x1="962" y1="0.000180446" x2="3438" y2="2476" gradientUnits="userSpaceOnUse" spreadMethod="reflect" id="fill0"><stop offset="0" stop-color="#EA4849" stop-opacity="1"/><stop offset="0.5" stop-color="#804B56" stop-opacity="1"/><stop offset="1" stop-color="#164E63" stop-opacity="1"/></linearGradient></defs><g transform="translate(-957 0)"><g><path d="M2200.02 0C1516.28 0 962 554.235 962 1238.03 962 1921.72 1516.28 2476 2200.02 2476 2883.72 2476 3438 1921.72 3438 1238.03 3438 554.23 2883.72 0 2200.02 0Z" fill="url(#fill0)" fill-rule="evenodd"/><path d="M2695.15 1786.46C2692.59 1779.14 2632.67 1612.09 2501.5 1593.55L2485.55 1473.83C2485.16 1470.95 2483.94 1468.23 2482.05 1466.01L2379.93 1346.84 2346.91 1032.95C2377.28 1028.02 2445.39 1012.41 2482.18 968.241 2483.94 966.125 2485.09 963.581 2485.5 960.868 2485.86 958.528 2488.54 937.408 2471.78 916.996 2458.07 900.27 2435.82 889.445 2405.48 884.662 2436.1 837.308 2501.44 720.237 2483.29 607.686 2459.6 460.751 2359.87 379.242 2202.43 378.06 2201.98 378.02 2201.55 378 2201.1 378L2198.91 378C2198.46 378 2198.02 378.015 2197.58 378.06 2040.15 379.227 1940.43 460.741 1916.71 607.686 1898.57 720.237 1963.93 837.308 1994.54 884.662 1964.19 889.445 1941.95 900.275 1928.22 916.996 1911.47 937.418 1914.15 958.528 1914.51 960.868 1914.93 963.581 1916.07 966.125 1917.83 968.235 1954.62 1012.41 2022.72 1028.02 2053.1 1032.95L2020.07 1346.84 1917.96 1466.01C1916.07 1468.23 1914.85 1470.95 1914.46 1473.83L1898.51 1593.55C1767.33 1612.09 1707.41 1779.14 1704.85 1786.46 1704.28 1788.06 1704 1789.75 1704 1791.45L1704 1922.95C1704 1925.39 1704.59 1927.8 1705.73 1929.96 1776.42 2064.65 1965.99 2098 2200 2098 2434 2098 2623.59 2064.65 2694.27 1929.96 2695.41 1927.8 2696 1925.39 2696 1922.95L2696 1791.45C2696 1789.75 2695.71 1788.06 2695.15 1786.46Z" fill="#E2D8A6" fill-rule="evenodd" fill-opacity="1"/><path d="M2695.15 1786.53C2692.59 1779.21 2632.67 1612.2 2501.5 1593.66L2485.54 1473.97C2485.15 1471.08 2483.94 1468.36 2482.04 1466.15L2379.93 1347C2379.93 1347 2343.45 1382.52 2198.57 1382.52 2053.68 1382.52 2020.07 1347 2020.07 1347L1917.96 1466.15C1916.07 1468.36 1914.85 1471.08 1914.46 1473.97L1898.51 1593.66C1767.33 1612.2 1707.41 1779.21 1704.85 1786.53 1704.28 1788.13 1704 1789.82 1704 1791.52L1704 1922.98C1704 1925.43 1704.59 1927.84 1705.73 1930 1776.42 2064.66 1965.99 2098 2200 2098 2434 2098 2623.59 2064.66 2694.27 1930 2695.41 1927.84 2696 1925.43 2696 1922.98L2696 1791.52C2696 1789.82 2695.71 1788.13 2695.15 1786.53Z" fill="#F2EFE2" fill-rule="evenodd" fill-opacity="1"/><path d="M2695.15 1786.45C2692.59 1779.14 2632.67 1612.08 2501.5 1593.54L2485.54 1473.82C2485.15 1470.93 2483.94 1468.21 2482.04 1466 2482.04 1466 2409.9 1509.17 2207.64 1509.17 2005.39 1509.17 1917.96 1466 1917.96 1466 1916.07 1468.21 1914.85 1470.93 1914.46 1473.82L1898.51 1593.54C1767.33 1612.08 1707.41 1779.14 1704.85 1786.45 1704.28 1788.06 1704 1789.75 1704 1791.44L1704 1922.94C1704 1925.39 1704.59 1927.8 1705.73 1929.96 1776.42 2064.65 1965.99 2098 2200 2098 2434 2098 2623.59 2064.65 2694.27 1929.96 2695.41 1927.8 2696 1925.39 2696 1922.94L2696 1791.44C2696 1789.74 2695.71 1788.06 2695.15 1786.45Z" fill="#E2D8A6" fill-rule="evenodd" fill-opacity="1"/><path d="M2695.15 1786.74C2692.59 1779.43 2632.67 1612.52 2501.5 1594 2501.5 1594 2443.09 1663.57 2210.66 1663.57 1978.22 1663.57 1898.51 1594 1898.51 1594 1767.33 1612.52 1707.41 1779.43 1704.85 1786.74 1704.28 1788.34 1704 1790.03 1704 1791.72L1704 1923.1C1704 1925.54 1704.59 1927.95 1705.73 1930.11 1776.42 2064.68 1965.99 2098 2200 2098 2434 2098 2623.59 2064.68 2694.27 1930.11 2695.41 1927.95 2696 1925.54 2696 1923.1L2696 1791.72C2696 1790.02 2695.71 1788.34 2695.15 1786.74Z" fill="#F2EFE2" fill-rule="evenodd" fill-opacity="1"/><path d="M2695.15 1786.07C2694.33 1783.73 2491.66 1886.37 2200.23 1886.37 1908.8 1886.37 1705.97 1782.85 1704.85 1786.07 1704.28 1787.68 1704 1789.37 1704 1791.07L1704 1922.73C1704 1925.18 1704.59 1927.59 1705.73 1929.76 1776.42 2064.61 1965.99 2098 2200 2098 2434 2098 2623.59 2064.61 2694.27 1929.76 2695.41 1927.59 2696 1925.18 2696 1922.73L2696 1791.07C2696 1789.37 2695.71 1787.68 2695.15 1786.07Z" fill="#E2D8A6" fill-rule="evenodd" fill-opacity="1"/><path d="M2370.41 477.963C2274.46 382.012 2118.91 382.012 2022.96 477.963 1927.01 573.908 1927.01 729.461 2022.96 825.412 2118.91 921.362 2466.37 573.908 2370.41 477.963Z" fill="#F2EFE2" fill-rule="evenodd" fill-opacity="1"/></g></g></svg>